<?xml version="1.0" encoding="utf-8"?>
<svg id="master-artboard" xmlns="http://www.w3.org/2000/svg" viewBox="0 0 500 500" width="500px" height="500px"><rect id="ee-background" x="0" y="0" width="500" height="500" style="fill: white; fill-opacity: 0; pointer-events: none;"/><g transform="matrix(1.610666977119735, 0, 0, 1.610666977119735, -560.166834744909, -1595.2034730406888)"><g id="g-1" transform="matrix(1, 0, 0, 1, 0, 0)">
	<g>
		<path class="st0" d="M539,1162h-70c-5.1,0-9-1.9-11-5.3c-2-3.4-1.7-7.8,0.8-12.2L494,1083c2.5-4.4,6.1-6.9,10-6.9s7.5,2.4,10,6.9&#10;&#9;&#9;&#9;l35.1,61.5c2.5,4.4,2.8,8.8,0.8,12.2C548,1160.1,544.1,1162,539,1162z M504,1082.1c-1.7,0-3.4,1.4-4.8,3.9l-35.1,61.5&#10;&#9;&#9;&#9;c-1.4,2.5-1.7,4.7-0.9,6.2c0.9,1.5,3,2.3,5.8,2.3h70c2.8,0,5-0.8,5.8-2.3c0.9-1.5,0.5-3.7-0.9-6.2l-35.1-61.5&#10;&#9;&#9;&#9;C507.4,1083.5,505.7,1082.1,504,1082.1z" style="fill: rgb(51, 51, 51);"/>
	</g>
</g></g><path d="M 281.61663818359375 287.0199890136719 L 287.4366149902344 287.0199890136719 L 287.4366149902344 295.3599853515625 C 286.53662109375 295.64666748046875 285.61663818359375 295.86334228515625 284.6766357421875 296.010009765625 C 283.73663330078125 296.15667724609375 282.64996337890625 296.2300109863281 281.4166259765625 296.2300109863281 C 278.82330322265625 296.2300109863281 276.80328369140625 295.4599914550781 275.35662841796875 293.9200134277344 C 273.9099426269531 292.3800048828125 273.1866149902344 290.2166748046875 273.1866149902344 287.42999267578125 C 273.1866149902344 285.6499938964844 273.546630859375 284.0899963378906 274.2666320800781 282.75 C 274.9799499511719 281.4100036621094 276.00994873046875 280.38665771484375 277.35662841796875 279.67999267578125 C 278.6966247558594 278.97332763671875 280.26995849609375 278.6199951171875 282.0766296386719 278.6199951171875 C 283.9032897949219 278.6199951171875 285.60662841796875 278.9566650390625 287.1866149902344 279.6300048828125 L 286.4066162109375 281.3900146484375 C 284.8599548339844 280.7300109863281 283.373291015625 280.3999938964844 281.9466247558594 280.3999938964844 C 279.8599548339844 280.3999938964844 278.2299499511719 281.0233459472656 277.0566101074219 282.2699890136719 C 275.88330078125 283.510009765625 275.296630859375 285.2300109863281 275.296630859375 287.42999267578125 C 275.296630859375 289.74334716796875 275.86328125 291.5 276.9966125488281 292.70001220703125 C 278.123291015625 293.8933410644531 279.77996826171875 294.489990234375 281.96661376953125 294.489990234375 C 283.1532897949219 294.489990234375 284.31329345703125 294.35333251953125 285.4466247558594 294.0799865722656 L 285.4466247558594 288.79998779296875 L 281.61663818359375 288.79998779296875 L 281.61663818359375 287.0199890136719 Z" transform="matrix(7.114822864532471, 0, 0, 7.114822864532471, -1746.5771484375, -1873.333984375)" style="fill: rgb(51, 51, 51); white-space: pre; color: rgb(51, 51, 51);"/></svg>